<mxfile host="app.diagrams.net" modified="2024-04-18T15:55:00.167Z" agent="Mozilla/5.0 (Windows NT 10.0; Win64; x64) AppleWebKit/537.36 (KHTML, like Gecko) Chrome/123.0.0.0 Safari/537.36 Edg/123.0.0.0" etag="BCQrYXGfbZnlqZSj4-63" version="24.2.5" type="github">
  <diagram name="Page-1" id="tqJtrjfjhA9Xocc_nxFs">
    <mxGraphModel dx="2195" dy="556" grid="1" gridSize="10" guides="1" tooltips="1" connect="1" arrows="1" fold="1" page="1" pageScale="1" pageWidth="1169" pageHeight="827" math="0" shadow="0">
      <root>
        <mxCell id="0" />
        <mxCell id="1" parent="0" />
        <mxCell id="08_YBYTBcIefBEFSBA6S-1" value="" style="rounded=1;whiteSpace=wrap;html=1;fillColor=none;dashed=1;" parent="1" vertex="1">
          <mxGeometry x="-200" y="260" width="470" height="280" as="geometry" />
        </mxCell>
        <mxCell id="08_YBYTBcIefBEFSBA6S-2" value="" style="rounded=1;whiteSpace=wrap;html=1;fillColor=none;dashed=1;" parent="1" vertex="1">
          <mxGeometry x="295" y="260" width="340" height="280" as="geometry" />
        </mxCell>
        <mxCell id="08_YBYTBcIefBEFSBA6S-3" style="edgeStyle=orthogonalEdgeStyle;rounded=0;orthogonalLoop=1;jettySize=auto;html=1;entryX=0;entryY=0.5;entryDx=0;entryDy=0;" parent="1" source="08_YBYTBcIefBEFSBA6S-4" target="08_YBYTBcIefBEFSBA6S-7" edge="1">
          <mxGeometry relative="1" as="geometry" />
        </mxCell>
        <mxCell id="08_YBYTBcIefBEFSBA6S-4" value="Application repository" style="rounded=1;whiteSpace=wrap;html=1;fillColor=#dae8fc;strokeColor=#6c8ebf;fontFamily=Work Sans;fontSource=https%3A%2F%2Ffonts.googleapis.com%2Fcss%3Ffamily%3DWork%2BSans;fontStyle=0;fontSize=16;" parent="1" vertex="1">
          <mxGeometry x="-180" y="425" width="120" height="60" as="geometry" />
        </mxCell>
        <mxCell id="08_YBYTBcIefBEFSBA6S-5" style="edgeStyle=orthogonalEdgeStyle;rounded=0;orthogonalLoop=1;jettySize=auto;html=1;entryX=0;entryY=0.5;entryDx=0;entryDy=0;" parent="1" source="08_YBYTBcIefBEFSBA6S-7" target="08_YBYTBcIefBEFSBA6S-8" edge="1">
          <mxGeometry relative="1" as="geometry">
            <Array as="points">
              <mxPoint x="70" y="360" />
            </Array>
          </mxGeometry>
        </mxCell>
        <mxCell id="08_YBYTBcIefBEFSBA6S-7" value="Build pipeline" style="rounded=1;whiteSpace=wrap;html=1;fillColor=#dae8fc;strokeColor=#6c8ebf;fontFamily=Work Sans;fontSource=https%3A%2F%2Ffonts.googleapis.com%2Fcss%3Ffamily%3DWork%2BSans;fontStyle=0;fontSize=16;" parent="1" vertex="1">
          <mxGeometry x="10.990000000000002" y="425" width="120" height="60" as="geometry" />
        </mxCell>
        <mxCell id="08_YBYTBcIefBEFSBA6S-8" value="Container registry" style="rounded=1;whiteSpace=wrap;html=1;fillColor=#dae8fc;strokeColor=#6c8ebf;fontFamily=Work Sans;fontSource=https%3A%2F%2Ffonts.googleapis.com%2Fcss%3Ffamily%3DWork%2BSans;fontStyle=0;fontSize=16;" parent="1" vertex="1">
          <mxGeometry x="135" y="330" width="120" height="60" as="geometry" />
        </mxCell>
        <mxCell id="08_YBYTBcIefBEFSBA6S-9" style="edgeStyle=orthogonalEdgeStyle;rounded=0;orthogonalLoop=1;jettySize=auto;html=1;exitX=0;exitY=0.5;exitDx=0;exitDy=0;" parent="1" source="08_YBYTBcIefBEFSBA6S-11" target="08_YBYTBcIefBEFSBA6S-10" edge="1">
          <mxGeometry relative="1" as="geometry" />
        </mxCell>
        <mxCell id="08_YBYTBcIefBEFSBA6S-10" value="GitOps&lt;div style=&quot;font-size: 16px;&quot;&gt;Repository&lt;/div&gt;" style="rounded=1;whiteSpace=wrap;html=1;fillColor=#dae8fc;strokeColor=#6c8ebf;fontFamily=Work Sans;fontSource=https%3A%2F%2Ffonts.googleapis.com%2Fcss%3Ffamily%3DWork%2BSans;fontStyle=0;fontSize=16;" parent="1" vertex="1">
          <mxGeometry x="311" y="425" width="120" height="60" as="geometry" />
        </mxCell>
        <mxCell id="pUkawa8a8KenMPf091Pf-8" style="edgeStyle=orthogonalEdgeStyle;rounded=0;orthogonalLoop=1;jettySize=auto;html=1;exitX=0.5;exitY=0;exitDx=0;exitDy=0;entryX=0.5;entryY=1;entryDx=0;entryDy=0;" edge="1" parent="1" source="08_YBYTBcIefBEFSBA6S-11" target="pUkawa8a8KenMPf091Pf-6">
          <mxGeometry relative="1" as="geometry" />
        </mxCell>
        <mxCell id="08_YBYTBcIefBEFSBA6S-11" value="Operator" style="rounded=1;whiteSpace=wrap;html=1;fillColor=#dae8fc;strokeColor=#6c8ebf;fontFamily=Work Sans;fontSource=https%3A%2F%2Ffonts.googleapis.com%2Fcss%3Ffamily%3DWork%2BSans;fontStyle=0;fontSize=16;" parent="1" vertex="1">
          <mxGeometry x="503" y="425" width="120" height="60" as="geometry" />
        </mxCell>
        <mxCell id="08_YBYTBcIefBEFSBA6S-12" style="edgeStyle=orthogonalEdgeStyle;rounded=0;orthogonalLoop=1;jettySize=auto;html=1;entryX=0;entryY=0.5;entryDx=0;entryDy=0;exitX=0.92;exitY=0.5;exitDx=0;exitDy=0;exitPerimeter=0;" parent="1" source="08_YBYTBcIefBEFSBA6S-13" target="08_YBYTBcIefBEFSBA6S-4" edge="1">
          <mxGeometry relative="1" as="geometry" />
        </mxCell>
        <mxCell id="08_YBYTBcIefBEFSBA6S-13" value="" style="verticalLabelPosition=bottom;html=1;verticalAlign=top;align=center;shape=mxgraph.azure.laptop;pointerEvents=1;" parent="1" vertex="1">
          <mxGeometry x="-289" y="430" width="75" height="50" as="geometry" />
        </mxCell>
        <mxCell id="08_YBYTBcIefBEFSBA6S-16" value="" style="shape=image;verticalLabelPosition=bottom;labelBackgroundColor=default;verticalAlign=top;aspect=fixed;imageAspect=0;image=https://pngimg.com/d/github_PNG65.png;" parent="1" vertex="1">
          <mxGeometry x="326.08" y="492.2" width="89.84" height="33.3" as="geometry" />
        </mxCell>
        <mxCell id="08_YBYTBcIefBEFSBA6S-17" value="" style="shape=image;verticalLabelPosition=bottom;labelBackgroundColor=default;verticalAlign=top;aspect=fixed;imageAspect=0;image=https://www.opsmx.com/wp-content/uploads/2022/07/Argo-1-e1630327305635-1.png;" parent="1" vertex="1">
          <mxGeometry x="529.1" y="488" width="67.8" height="45" as="geometry" />
        </mxCell>
        <mxCell id="08_YBYTBcIefBEFSBA6S-19" value="&lt;font data-font-src=&quot;https://fonts.googleapis.com/css?family=Work+Sans&quot; style=&quot;font-size: 18px;&quot;&gt;Continuous integration (CI)&lt;/font&gt;" style="text;html=1;align=center;verticalAlign=middle;whiteSpace=wrap;rounded=0;fontSize=18;fontStyle=1;fontFamily=Work Sans;fontSource=https%3A%2F%2Ffonts.googleapis.com%2Fcss%3Ffamily%3DWork%2BSans;fontColor=#004C99;" parent="1" vertex="1">
          <mxGeometry x="-190" y="267" width="240" height="30" as="geometry" />
        </mxCell>
        <mxCell id="08_YBYTBcIefBEFSBA6S-20" value="&lt;font style=&quot;font-size: 18px;&quot; data-font-src=&quot;https://fonts.googleapis.com/css?family=Work+Sans&quot;&gt;Continuous deployment (CD)&lt;/font&gt;" style="text;html=1;align=center;verticalAlign=middle;whiteSpace=wrap;rounded=0;fontStyle=1;fontFamily=Work Sans;fontSource=https%3A%2F%2Ffonts.googleapis.com%2Fcss%3Ffamily%3DWork%2BSans;fontColor=#004C99;fontSize=18;" parent="1" vertex="1">
          <mxGeometry x="311" y="267" width="259" height="30" as="geometry" />
        </mxCell>
        <mxCell id="08_YBYTBcIefBEFSBA6S-22" value="" style="endArrow=classic;html=1;rounded=0;exitX=1;exitY=0.5;exitDx=0;exitDy=0;dashed=1;entryX=0;entryY=0.5;entryDx=0;entryDy=0;" parent="1" source="08_YBYTBcIefBEFSBA6S-8" target="pUkawa8a8KenMPf091Pf-6" edge="1">
          <mxGeometry width="50" height="50" relative="1" as="geometry">
            <mxPoint x="340" y="430" as="sourcePoint" />
            <mxPoint x="529.0999999999999" y="350" as="targetPoint" />
          </mxGeometry>
        </mxCell>
        <mxCell id="pUkawa8a8KenMPf091Pf-2" value="" style="shape=image;verticalLabelPosition=bottom;labelBackgroundColor=default;verticalAlign=top;aspect=fixed;imageAspect=0;image=https://pngimg.com/d/github_PNG65.png;" vertex="1" parent="1">
          <mxGeometry x="-164.92000000000002" y="492.2" width="89.84" height="33.3" as="geometry" />
        </mxCell>
        <mxCell id="pUkawa8a8KenMPf091Pf-6" value="Orchestrator" style="rounded=1;whiteSpace=wrap;html=1;fillColor=#dae8fc;strokeColor=#6c8ebf;fontFamily=Work Sans;fontSource=https%3A%2F%2Ffonts.googleapis.com%2Fcss%3Ffamily%3DWork%2BSans;fontStyle=0;fontSize=16;" vertex="1" parent="1">
          <mxGeometry x="503" y="330" width="120" height="60" as="geometry" />
        </mxCell>
        <mxCell id="pUkawa8a8KenMPf091Pf-18" value="" style="shape=image;verticalLabelPosition=bottom;labelBackgroundColor=default;verticalAlign=top;aspect=fixed;imageAspect=0;image=https://www.nodejsera.com/library/assets/img/ga.png;" vertex="1" parent="1">
          <mxGeometry x="-10" y="484.53999999999996" width="156.66" height="51.93" as="geometry" />
        </mxCell>
        <mxCell id="pUkawa8a8KenMPf091Pf-19" value="" style="shape=image;verticalLabelPosition=bottom;labelBackgroundColor=default;verticalAlign=top;aspect=fixed;imageAspect=0;image=data:image/png,iVBORw0KGgoAAAANSUhEUgAAArwAAACuCAYAAADUO976AAAAAXNSR0IArs4c6QAAIABJREFUeF7tnQeYJWWZ79+qOp2mZ7on55yYgWESOUgYggFEgmRWQNdVHne5hot6vequq3J1eVy5er3qoohEBUExISBhSBIGmCHI5Mzkme6Z6e4T+pzz3fuv08Wc6T6Vq07o/p9nfVjoCt/3+76q+n/v9wZN+CMBEiABEiABEiABEiCBfkxA68d9Y9dIgARIgARIgARIgARIQCh4OQlIgARIgARIgARIgAT6NQEK3n49vOwcCZAACZAACZAACZAABS/nAAmQAAmQAAmQAAmQQL8mQMHbr4eXnSMBEiABEiABEiABEqDg5RwgARIgARIgARIgARLo1wQoePv18LJzJEACJEACJEACJEACFLycAyRAAiRAAiRAAiRAAv2aAAVvvx5edo4ESIAESIAESIAESICCl3OABEiABEiABEiABEigXxOg4O3Xw8vOkQAJkAAJkAAJkAAJUPByDpAACZAACZAACZAACfRrAhS8/Xp42TkSIAESIAESIAESIAEKXs4BEiABEiABEiABEiCBfk2AgrdfDy87RwIkQAIkQAIkQAIkQMHLOUACJEACJEACJEACJNCvCVDw9uvhZedIgARIgARIgARIgAQoeDkHSIAESIAESIAESIAE+jUBCt5+PbzsHAmQAAmQAAmQAAmQAAUv5wAJkAAJkAAJkAAJkEC/JkDB26+Hl50jARIgARIgARIgARKg4OUcIAESIAESIAESIAES6NcEKHj79fCycyRAAiRAAiRAAiRAAhS8nAMkQAIkQAIkQAIkQAL9mgAFb78eXnaOBEiABEiABEiABEiAgpdzgARIgARIgARIgARIoF8ToODt18PLzpEACZAACZAACZAACVDw1sAc+Mqfk6qtUySvVKDW5pXIxFZd/vUDjRzvQAR5EgmQAAmQAAmQQC0ToACqgdG74q4uta8jLwH1rtnDqSN0ue3yQRzvGhhvNpEESIAESIAESCBaAhRA0fKM5WrX3NOl9hzMSy4f/PIUvMHZ8UwSIAESIAESIIHaJkDBWwPjR8FbA4PEJpIACZAACZAACVQtAQreqh2aQw2j4K2BQWITSYAESIAESIAEqpYABW/VDg0Fbw0MDZtIAiRAAiRAAiRQAwQoeGtgkGjhrYFBYhNJgARIgARIgASqlgAFb9UODS28NTA0bCIJkAAJkAAJkEANEKDgrYFBooW3BgaJTSQBEiABEiABEqhaAhS8VTs0tPDWwNCwiSRAAiRAAiRAAjVAgIK3BgaJFt4aGCQ2kQRIgARIgARIoGoJUPBW7dDQwlsDQ8MmkgAJkAAJkAAJ1AABCt4aGCRaeGtgkNhEEiABEiABEiCBqiVAwVu1Q0MLbw0MDZtIAiRAAiRAAiRQAwQoeGtgkC79Zadq71ShWjppmC63XzmI4x2KIk8mARIgARIgARKoRQIUQDUwat97OqXak0ry+WCNhVQeNViTz53eyPEOhpBnkQAJkAAJkAAJ1DABCqAaHjw2nQRIgARIgARIgARIwJ0ABa87Ix5BAiRAAiRAAiRAAiRQwwQoeGt48Nh0EiABEiABEiABEiABdwIDWvD+5IW0UgFjweBOO26IJhfPrz+MYZhrYria6kWuO67hsGv+6vW02p+SwD68uO6wQSJXLDr8uu7Tg0eQAAmQAAmQAAmQQO0TGLCC99alafXk2mzgEYRSnjPGkFs+3PQew4feyKg7XukOfE1RIi1Nmhw7SZfPnnYowOwf7+9S+zqVZAMGreG6U4fr8oOLD7U1eCN5JgmQAAmQAAmQAAnUFoEBK3hveTKpHluZCzVaM8foctbMhHx0QcHKC0vsz/8WQvCKSHOjJidOMeTLZx0SvFfc1aX2deQlqDUabZs6QpfbLmdaslADzpNJgARIgARIgARqkgAFb4hhmz3GkLNmGe+5Ndy/PK1ueyGc4B3SpMkJUwz50pJDgpeV1kIMEk8lARIgARIgARIY8AQoeENMAQreEPB4KgmQAAmQAAmQAAmUiQAFbwjQFLwh4JU49St/TqrunMhJUw5ZzaO9A69GAiRAAiRAAiQwEAlQ8IYYdQreEPB6nfrdJ1NqqRlEqMnMkbrMHaPLDacwq0R0hHklEiABEiABEhi4BCh4Q4w9BW8IeEWn/vyltHp+fU62tB1KQwFf5qPG6vLNDzKzRDSUeRUSIAESIAESGLgEKHhDjD0Fbwh4Rad+4tddalt7XrJFSTN0XaS5XpPRrZr85BJml4iGNK9CAiRAAiRAAgOTAAVviHGn4A0Br+fUHz2fVo+vzEpnum8FEE0TSRgiM0cacsIUXa4+hi4O4YnzCiRAAiRAAiQw8AhQ8IYYcwreEPB6Tr3hgaTasDcnOYeiGnUJkUlDdTljVkKuXHR4ZbvwLeAVSIAESIAESIAE+jsBCt4QI0zBGwKeiPz4+bT6/VtZyea81XeuS2jyTyfVyYVHU/SGI8+zSYAESIAESGBgEaDgDTHeFLwh4InIZ3+bVCt3Olt3i+9g6CKzRxuyZJZB0RsOPc8mARIgARIggQFFgII3xHD3FrxRlBYeKJXWvrc0ZWZm6EgpzyWT4dNbX6fJ/HG63HweszeEmLo8lQRIgARIgAQGFAEK3hDDHYeFt2WQJsdP7ltaePfBvOQd/FzdujF9pC4/vax6sh3c9IekWr6lKC2DWweK/o5FwcKJhnz9nEPll32czkNJgARIgARIgAQGGIEBK3h/8ExaPWkWOgj2U3mR2WN1ueX8Q5bGh97oVncuy4imRFQQskqkpUmTYycacuNphzISfPrBLrX7gBKPrq59O6REpg7X5daLqscqimC1tbuDCV5Yese26nLBUQn56AL68wabwTyLBEiABEiABAYOgSCybODQYU9jIXDHK2n111U52XkguMm6sU5kxkijqkR8LLAivuitS9Nqf1JJJqdkSKMmk4fpctViLhoixly2y/16eUZtbc9Le1KJoWnSXK/kpiXVs7AtGwjeiARIgARcCFDwcoqUncDNf02p5Vtz0tblLTtDqQbqmohhiFy+qE6uPY75eb0MIoIE1+3NS7q74DeNIMDxrbqcMt2QT5xAhl4YVtMxDyzPqMdXZ2XbASXpjBLsfOB/88cbcssFFL3VNFZsCwmQQOUJUPBWfgwGXAv+28NdatMeVbLYhF8YJ04zWH7YAzT4TK/cmZdUpu8iY2izJg9c28x3gQeO1XTIFXd1qfbOfJ8c1qhSCBemavLZryZubEswAg+syKjunJJBdRqz5ARDGPlZv3szozozSuoMkcsW0mjhBrgmPnJ40HZ1BLcGAsJnTuk7GVDlyw2Q3d9RKGF8i9bHhxTXxN9gPfP7w3nN9dLH2nbvaxnVlgzcVPODOLJZ67N1fduLaZXsjratXvp87X1dCkF43cFdqN+7zbihupw81ZBPn8yH3Yn91Xd1qb0lxBHOgd/4BfMStJR7mbxVcsydy9Lqrpe7TYsurPXFP/y3cS2a/PJqLmKqZLhqvhnIQASxm1eaOeeaGzS5hPnQKzquD0Lspgu7dbqmTM1x1WIGcjsNSk0I3q89klQrdwX39wSAJTMTckOR6IUwfTpE0BquOWuULjd/6PCtw0t/2RlcmUJ8NBaC1orb+i+/Tao9HUqy+eCXnjpMP2yb8/tLU+qtHXk5kAp+zdYmTX4WIPPDJb/oVEhHFqI7781pVGFbNMGQbzNNmePL94KfdapkCesuTsLH64xZhnz2NL4sK/oF83Hzn7yQVg8u77Y9AwvcixfWyaUM6vRBlYeWIgCDE74TEFXWz0wRaVBgVWrG/GZFRnVk8n0WuxiTq4/he9xuXGpC8ML38O87gkX0o+Po5FlzEvLFMw9NhFueTKrHVwW/JlZVvdOSwafuv17ImKzxQvD7wzVhbTtxin5Y4Mk193SpPUhLFlCb4rq905J947GUeuPdnBxIFnz//P6stj54vX8r0odv61Ap+2+136bIUeMYvOYGzU3wnjLt8Dnndj3+vbIEsGD/3Qr7h2jYIE0unF/HgMTKDlO/uPtdy1Iqa2Nvuv54iqtKDPIvXra3VHFM7EckgNQp//De+FBSvRNS8J49t6/gfWxlcMELCnHk4S1X4QkI3hVbc3IwhIUX4rwaBO+kYbrcfmX15Bgu/xPifkcKXndGtXTE/3k2rR5+k4K3lsasFtsK625H2n53leKqMqP685fSqtjiXtwKjgkFr1Dw6nLb5YdEYX8SvBDecGtAoM7gBpGubiXpbpGsEsnmRBDEg6wOCa3w/yN906B6kYvnD5x0XBS8lfkwxXVXCt64yPK6xQTuX542g6LsfhRXlZkviL9J6KXHhWNCwUvBO6L/Ct6EUfB9HtxYCKjoTIske0QvAvbw3+DQD7ELn18IXxw/vEmT4c2aDGvSzKC+/lzEgoK3Mh+muO5KwRsXWV6Xgrf65wAFb7AxoktDMG7mWXRpqA6XhhBD+N6pEMVNdZpMG6HLqdONfid+KXijmCXVcw0K3uoZi/7cElp4q3N0KXiDjQsFbzBuFLw96ayC+PB+BBkDeoofhMAf+amwAg+q12RYs2amnIObRH9xe6DgjXy6VPSCFLwVxT9gbk7BW51DTcEbbFwoeINxo+ANIXivvKtLtdnkhA0xHJGeqmmazBqtyzETdPn4ibWf45eCN9LpUfGLUfBWfAgGRAMoeKtzmCl4g40LBW8wbhS8IQQv8gpv2peXZPC6HyFGzfuppsW3QZPjJhvyP86q7fQ7FLzex70WjqTgrYVRqv02UvBW5xhS8AYbFwreYNwoeEMI3v94KqVe3ZyXfZ3hiomEGDrPpzbUa3L8FEO+fg4Fr2doPDB2AhS8sSPmDUSEgrc6pwEFb7BxoeANxo2CN4TgRUnEP72VlS1t1S14Ecg2dYQuZ8w05KrFte3WQAtviAe9Ck+l4K3CQemHTaLgrc5BpeANNi4UvMG4UfCGELyAh+p5b28PV/gjxNB5OhXpzs6dk5DPnV7b1l10loLX05DXzEEUvDUzVDXdUAre6hw+Ct5g40LBG4wbBW9Iwfv1R1PqpQ1ZUXmRgBWTQ4yc+6mw7jbWa/L7T/gvnex+9fIfQcFbfuZx3pGCN066vLZFgIK3OucCBW+wcakJwQtr4N935EQFVEYQL2fPGdilhaeP1OWnlx1eae2Nd3NyIBkQakjBC7eGJ1fnZO3unOSr0LNhSIMmS2Yn5J/fV9uuDNZrgYI32AuyWs+i4K3Wkelf7aLgrc7xpOANNi41IXi/8ZeUWr833Pb3ydMT8qmTDomXn/4trZ7fkBMtoIrOKU1mjdLlX99/+Hb3x+7tUoGvKZq0Nmoyf7x+WFs///ukau9UkssHE6c50WTyUE1uPq/pvfHGB/PtXTnpSgW/Jtr6o0sOXdPvFPzR82n16MqspNKqqqy8zQ2aWab41ouC980vi7iPp+CNm3B5r0/BW17eA/VuFLzVOfIUvMHGpSYE7+/ezKidHcGEmYWlWOxa/w2iNxg2Ma3NY4docuHR9YcxDHvNwfWaXHPs4df89fKMOpBSElDvmm0dNkiTyxceft07l2VUV0aZpXf9/nDNxjqR644LbgG9e1lGPfx2t+zvUoGt937b7eV4VNA7eaouVx8TvG9e7lPOYyh4y0k7/ntR8MbPmHdgloZqnQMUvMFGJoDUCXYjnkUCxQR+8kJardiek4178pINZ7yPDCyEf8LQ5ENz+48rgwWHgjeyaVIVF6LgrYph6PeNoIW3OoeYgjfYuFDwBuPGswIQgKV6T6eSHQfysrldyd6DStLZwEb2AC2wPwVit3WQJidMSch/P6Myll3sZLR1KWlPKUl2i2SyIpmcklR3od11hkhCF0Fu4OY6kZZGTYY2anJpL8t9qV5WWvA+sDyj9iWVdKSVJDMi6Z5+5fIiKPCBvjUYmtQlRAbVadLapMmwJumzgxLpoEd0MexUtKNvGSXp7kLfunMiVt8a6kTqdE0aEmK6LGG35YpFh++2+G1KtQne7y9NqT0dSrL5Qnnu8a2afLIMFQp/9XqB/cFUXtJZzWSP5wb88WuqE6lPaOb8wu5Za5PItSF2pfyM0y1PpdRe7F7lRRATADep3rt3Ttez5tWBdKFP1rsAO33oj66hb+ijJi0Nmgxt0mRwQ7TPDAWvnxEv37EUvMFYU/AG48azXAg89EZGdWRE2ruU7OrMy+5OJdv3K7O6GsRlQNfpWLhDcA1t1mXeOF2+enb5U5BBvKxvywuqz3XAdaVXEF9vlxOLnQ6hmNBk4jBNZgzX5aYz7dteCcH7wIqMWrcnLxvb87K1TUmm+5DrijUHivtWPCfQr5YmTaYM1QQBl6VckmKZDB4v+ouX0mrdvrxsaVey+6CS7qKFW3Hf0Kfe8x0LlpGDNZk6VJfZo3W5arF/8Vstghc7Na9tzcmGPfnDXKOQ4eR903S5aUn0fvBYPK3Zk5fN+/Oyrb3wTrF+bvMKJcNHt2gyeZgm04brsYhyLOyfWZeTNbsKgdbWHB/SpMn5cxNy/Qn2C2rMq1V4ZvYpaevEu+DwvvWensXPjLVoP2K0LgvGGZ4Wwm7TnYLXjVBl/k7BG4x7WQXvQ290q79tzMrKnTlJYHnKX78iUOxjnO95E+eUmAIO/xrUBzluSBAgJ0425Kvnlk/s/mZFRi1dn5Nt7XlJdhdELvgEWQjgUYL4bUpoMnKIJsdMMvoIxHIKXvixv7QxJ/u6ChZ8q29+xxEfcPQN7wpY6maM1uU7RYGXfq8XxfH//nhKvbk1J6lswYobZsxMFxpdkxHNIvPGG44Llt5tr7Tgxfx9fFVWtu3Pm9bH3s+25R50zhFGZHmsf/BsWq3YlpNdB/KmJTmKeQXr+5zRunw7wnn15T8l1eubc32YYGE9plWXc2cbfeIDvvLnpNqwO2/uEoSZV9YzA6vvtFG6/OcF4RYcYQXvr15PKwRbm8+JaH3eb8UL3npD5IpF8e+u3bUspfLqkP4ol8W/1Pvnt2+mFXa9rPbUGUquWuz+HQoreGGQwjsMY1NqXIoXkJoo0TXsUGny0QX+F+dRvHejukZZVecdL6fNlW+1V9iKCi6vU90EsPU6e4wuC8eXL0AN6dhW7czLljYl2w8cErtRkMLHAx/wEYN0c/v0iDG6XNmzdf7h2zqU5RrR+17ISnFKBNa4n7+UVhv2FaxuuzuwxRxMwJdiAeELi+/oIeib5kscRsH2e0+nFMYM7jhwO4ly8YYCJyOadRnXopkWXy+uAJUUvNiqX79Hybv785IqstqX4nzqjESfTDZ+x+MXL6fU2t1KtuxXsq8jOjco8+PX48o0bohuumF8+Sx3seHW/s88mFSrd/YNTLAWAWfMMuSLPbsxty5Nm9bqXQfzcjAFAeJ2dW9/x/MyuFGTo8Yb8u+9Mgl5u0LhqKCCF++5dLcl3r25rYFPvaFJQ50ml/QKBvfTZqdjIcBhYCj+QchVqpImxDcWb9YPwlLXlPzDsc7zMIzgBYOMuVj3Fyxuid7GRLRuM1GNrZfrlFXw4iX97Pqc7OuM6Kn20kMeQwJFBPBSxYdgzGBdpgyP5gPnFTB8dB9ZlRVYcoJYcr3eB8fBmjRyiC6nTDVM4fnYqm7pzpa+QhSC98fPp9Vja7LS0eXt4+anL72PhbsDxPz3PxLOeuW1Df/2l5S5M1WOfNEYsxMmG/LZ050tXZUSvEiRuHZ3/jA3AieOJ0wz5FsfDD5O8A1+dUtedh4ozzfjuCnGYekbvc4R67h7Xk2rJ1Y7G3WQBebMmYYs25qTlTvz0hkwNaSXtjU3YjHrb/eg+Lp+BS/6n8piZyb8e8DQNfnYsdFZfNE2c2egxMsXQrvcWXlgZW1Lwnp6OCtYez/h4PaC8fEreCFyCxbdgqAO80P7cA1Y5K8+JvwCMUxb/J5bVsH73SdTZu7bYp8rvw3m8STglQDELf5nBkXpmmh6IdBr6gg9lNXD6/2Lj4MgfHRVVjJZZWaliFvwWlub8KVE0EwyY5/rOKzg/dZjKbVsS868R5SWTzvOsF4Zhkhrky5LZhmeLKJBxuzOZWn10qa8bN6Xi9Ra7dQWuKYMbtBk/FBdfuiQB7rcgvc7T6TUi5tyvufvkiMS8j8CWk0hrrEbeCBii7oTfwRNThyqy8nTjEApF3/5Slo9tSYn77bbC3Qs2OCigwDH7ly8zwzeA8dNNgK7bLgJ3uZ6TS5b2KDd+3pGwY+9lJgM8uxZ58CqiAC9KCyw2IGyE3sIBnazqobpR6lzEePQkS49T64/PriFF8GLFx19aKEAKzJcC6P+5pjfV9HMoFBrJzFqRlFfr6yCFx/GFzbmDgvwiLpDvB4JvPeyhF9rvSYTWnWZ0Ioo6cpsXWHeo1IgMlTgF/WLx2nErW1bp3sGFbzYtnxxQ04QmAY/tHL3C+Jw5GDd9MGM2v8alsW3duRNf1E7V5C4njRL0C+cYG9tLJfghd/sql1505XDT1VG9GHicF3OPSLRJ/+3GzfLv33T3rxgW7wci6jiNkH0jhqiy7yxzoGgpfrhRfDivHIE7uLZx8LwuKmJwAt8N8FrbcEXb8u7jW+Qv0OQNtXpoXxInayi/Unwoi+Ndbrp544FVdCCVX7GqZJuIX7aWXbBC5eG4shTP43lsSRgfSzgfws/Vaz+8cMHFh+qOk2TxvpCANfgepFBDeFTQIWhfvNfU+r1rTkzW0W1/oIKXnN7e1fetOxW6gfhMKRRk1OnRxccdfuLafX4mpy0deZD+VSGFTXwWYZ1rpRfaTkEL6y6K7blfXPAx2/KCF1OmmL4SsOFOQS3n6fXYqs/V1H2GLsRgzQ5aVpCbjzN+7a6V8FbjucFfRg3VJczZxhy3fHe+1DcNjfBW45+vHcPVUjp17vYk9c2DBTBCx6W24FXNlEch8VPJQMAvfShrIIXJYJh4aXg9TI0PMaOQFODJtNGanLa9ERswQ1R0Efp5CdWZ+Vg0psghOtFY50m2CaEkEeOzTrkptVFzGwXSiTbk+MVfrmd3UpSPW4EYayrQQTv1x5Jqte3IDDNvW+WWwkix7FQQWBdoqfIh9U3uHnkVCHfKAKhkIcY//Ri3cP1m3tSPrn5vrmNK9JCPb0+J9vbvflZw8rcmCjk2MU2NcYPL34EohmaSDd8BqXQL4xZOtOTYznnzSJ+1DijZInrOAUvhMErm3OycS/Sq5j/5+mHPsNlaPIwXRZPMgJtc97wYJdCMRoEb3mZ07gn5hTmFnwKIbbNdH16ocngDysX+CNY6WAa+ZH7pv6z6+D4YbocP9mQz5ziTTBGJXiteWXNKbwLYK1NaJo5r/A+wDOTzaNvSrowt8zc3YV5Zbr8NGhy7BRDvnBGcD/LKAWvtQVe7FYAYebXDQLPmpdMBr3HtNoErxPbMC4Nnh7WXgdZlnr8s/ArvHv9ukLgfMxZuLkEaUfc55S1URC88OFVXt5kcfec169ZAsjLesasRKAPark6jfykj76TFZRu9iLa0C6kR0OU/oJxuutK+d7X0uaW+/Kt+dAuQn4F7zcfS6ln1xUckb2KoaHNmswbZ8hRY9y3JZHWDH1btQOi09sdIBCGNevyvunexUnvuWCl2tqw15vYxfm6jvRPmswbbcg/v8/9Jf8fT6XUW9vzpqD28ps71pAfXNw36CsOwYv+P7oya6aT60z7zxjQMkiTc2Yn5NMnu3Mo1febfp9Uq3wExOEauOeCCYbMG6PLxfOdUybBj/75jYW0Zh6nlblzNLZFkw/Pq/O0nX7HK2n1tIsPr5dxx7yaPkqTxRO8+ahbrieb2vLmogpcTp+RkBs9zEmn9kQheK2UW+aCPlHIxICxwnzDghkFNbJmMJX3YLcgQWbVJniRr7krE70Pr5f5hWOsccECBC4QTb2yL8DHuDNz6D3gNditkM2hPCnmvPbVOq7sgpcWXr9DxOOLCeCleer0ROQ+m1FSRjQw0u95EU4QavAxnjtGk1mjjEDbdUhtBD/LTW25QAFxfgQvtrkh2Nyi5s0qUHUFt5Mjx+hyg0cLWfE44IWLFG5r9+Qdg4Csc8By9mhDflhCIHoZ3xsf7lKbditzkeL0wxyEuD5iVPDCEfj4vrktb6b2svONhWsO/Hi/WSLLQdSC99ZnUmrNbmXO2ZyPQCoYhEa3FPxdw6T0Qn+Wrs96ClDDfB03VJO5owxf7gbWmFppzlbD9zxVCCJ1+sFqPH6oJv912SDX72UYwYv5C99hPC+zR7kvDL3M6bDHhBG8sLg31+u+3mkQgclubwsSNyto775T8BaIQJCi8p/bArHU3Lnn1ZSZ0szth/fCdccF31lwu37Qv7s+wEEvXOo8Bq1FSXPgXcv0qxusywfmGK4W0ErSQR5Oq8qSXTusLcvJw3VZNF6Xj4cswwqRvfzdvCBlFFblXi1YaJ8fwXvJLzoV8oU6Xd+sXNdUqJC2eKLhyTLmNF5wDXlrGwS9uzUbGQ5gJf/uh/2lwoLg+sPbSD3mLHYb62Dx0+XIsXroggooxPPmtpys3p2Xvb38hTHXZ402zJRSpSqxRSl4v/KnpHpze950j/H6w/yF68241oLYDbKgse6FbBiwim5tg/OH829kM1LSGTJ3rO47GK73lf0GJp51RMJV1Ad1acC8mjjUkHnjdc/uE17HKsxxQQQvBBXmRpgiBdjB8uIu5Uf0DnTBG5XlFcHKZkVQl49MJQIB3eZ6WQUvrENwafDzYnXrAP8+cAhASJ08IyFfP6f6Vo7WKMAH9K+rc2Yiebuf6XNar8nM0brc4lOYuY02KjZZuT29ulJ4FbzfeCylXtmIFF32sgQ+lUMbNVk4yZAvLYl2nLCQQOQ+tkDt3rWwLLc2aXL/dc2e323Ih/mnd7Km4HLKtYt0UtNG6HLaDCO02CoeR6RLenZDzszHCp9T+J8if+o5s/pW5LLOi0LwIqASQrcjVbpaWqm5ViieUEgJh+wY/xqiqIF1fVQme22zs/tKwoD/t8iZMxOeXEfcnpNisY3Ucxv2InvSPAGuAAAgAElEQVSQ81mThuly6jTDcXHqV/AWisUUUiU6paHz2p+oj/MreJE7t6UheGBZcfuROxZ+707CalC994XPQBa8ELstjXJYurKwc8WLtRe+9eWonue1L54/Cl4v6HQcqhW9sCHnK71NFPflNfoHAQiO64+vi6RGfFxErrmnS+3rVI5+tWaFt7G63HK+Pyuk1zZjYfnchpzpy+fl50Xw4uPz4BtZ2d/lbN0d06LLool6qEAZpzbDz/ONbQh8tT8KgmzBRMNzGeJbnkyaLigI+rEjhhflokmGb8uxF/7Fx8Cv0YtlLIzghcV8za4edwpYary5E5vNBFv4YiOQ69KF4cuMwr3g6XV52dbm3IghTZqZ4iyof7DTOMBi9eTqnKzb7ZwZAllgjh7nPAf8Cl747U8ZpsuPLonnXeB3/vU+3o/gjSNKH8/DQZtctWgr7olCQl4qsw1UwQtL65AGf64lXufNva+lzEWJ3Q/j09oYzQLIa5ucjiur4C1UWssKBAF/JOCHALb8Jg83qvbDgL7ghXr/a92OOTZNwTDeiNyy25vl1x9NqZc3ZAs17F0eNy+CF9bAp1bbv9kKuWM1KS6b6md8vR4LcfLs2py8sxPW2NIdQ1sgJC6al5DrXSoW3fd6Rj29Juvobw0fzjGtmpw3NxHI781r3/wcF1TwoiwwUo3tOegv5RoWaaOHFNxFbuopi+unvXbHfuo3XWpHu7PfNMpJHzs5vAuJU3vhO4qMKjsOKMc0eyg//P65CdtCCH4FL4IST59leBJsUfD2ew2vgjcOsWu1FW1A1hY7S6/XALaBKHjLUQ0Nll7sTNl9Z6KumOd3DhcfX1bBa6X8cVvNh+kQz+2fBPChOWdOnVxzTHirUlyEvvpIUr20wd6j3wrwuXBeIpR/m9f2X3N3l0L+XzdfODfBe/eyjFq6Liub9tkHk5RzQfKr1zPq/uXdZsCRk5g/faZ7cCPGDL7PTtZwCK7TZhryqZOCZR/wOl5+jnMTvPChPn9e4j1f9zteTqun1hUyFHhN+WUVLoDYnT5CN7MhRP38nfvjTuWUiQPzCrlwv3J2tO4xpVhDEP1tg3NZYBSymTvG3kfcq+DFogzpFS88OhGoopufuRLmWC+CF+81pOaLc+saMQpwZSr18yqoqk3wliMtWWuje/aSMPPDOtfJvSHOxZDftpdV8GJ74qm1OVm900OYn9+e8Ph+SwAv1EUT499ODgMQovCpdVnZjNylNj9siZ53VF3ZglKQGu1vG7Kybb+ziddN8P774yn18iZnFwmIwnv+wT2KPQzj4nNv+mNSrd6Rd8yocPR4Q/7zQuet4k8/2KXW7XTeTp87QZcffKR8ffPCyE3womgFinHACA6rJRYrB1L+U40hndwHj0iEDqos1SfMzweXdzt2d87Y4Fk3vHDsfYzbTgaOHzlEl/ts5rpXwQvhjPLFYTJbBOmf33O8CN5yVNnCzs7BlP2C24vorTbBG1dpYWuMyyk0nfqC9ngZH79zM8jxZRW8aCACFF7dRMEbZLAG6jkzRxnyvhmlo9WrhQn8QJ/fmDcDj0r94MowolmXu68pr3C66Q9JtXyL8/PmJng/93BSvb0N+bNL04alCpH6N59XXj/Ej9/XpbY4+H6iytTxk5zz4157X5ey23GCFW7CUF1OnWHIxwNWqoprfroJXiyukEGhOyem0E2mveeDNit0tWgyYzTy2xpy8fy6WL4TbjsiYHfxgrpQGSD88odR5pGVWdnWnrdNV4aAwo8dW1fSvcWL4EWGC1Rxu/dj3gMr/fYjquO9CF7sJlx0dPy7H4gjQPGQUj/klHUrOjOQBG8lBKbT+GDM/GTUiGr+9r5OLC8yp8Z6WUHH1Vlet7YImJV5NJEPHpmQz54W/5ZmGDpf+kNSveYgLIcOQp7d8otCJKR/bFVWMt322/9ugvef7u9SG/bYW0Enj9Dl1KmGq79sGL6lzkU6LTDHFn2pX2O9ZmYSuOWC0kIcFkb47+61iSmo5pzPboI3KGv0edqI+NNjPbA8o/74TtY2WK3w7GvyyZO8FXwI2t9S56GK4PKtOUnZGJ/hZvH+OXUls0V4Ebx43uAi4rb7EGWfgl7Li+Atl5BB2em2ZOmHnYL38BEuh9W91JxCEGrQBUnQOernvLILXiQ4/9NbLvlf/PSAx/ZbArBSjRysy51XldcqGgTojQ8l1Ts77C2pyEkLn9JSOVWD3M/rOfhIPO4Sge4keOE79xgsXg5uEcdNMcpu3UX/Ieb/tjFnBmDZ/ZBK6vYrS88fWBhRRMPOKo+sIB+dH892vtfxszsuDsELkYmI6ssXxy8yYW17+K2sre80hHciocnJUw2ZMqx8n6m2LjHzPb+1vVDEpdQP76VFEwz5dokdDS+CFzsP6FccGSfCzqve57sJ3nKnnQLfUsFrFLyHRg7P8ZBGvSKBkCi8YueTj0wRXjLQRD2Hi69XvjdJz11vfzmt7lvm7LcVZ4d57dohMLxZl7OP8FZas9K9+tT9XWq9gxUUeWmjzrnrtc9wt3hyjf0H3Enwwgr6zNqs7O6w9wM+d44hNy0przuD1ffP/jap3t5uv9AYNdh+6xh5fTe3lS64gG1nzD87X02v7OM6Lg7Bi7YiQO2cI6LNdVuKAdr/+7e6bd1k8NGGS8mwJk3g71quH6pIYdu8kFi/9F3hnnTEaENuvajvnPcieMvtlxyGnZvgLZd11+qDXUEKCt5Do1wp6y5a4FQuudyLo1Lzvnxvkp67w0fqp89nHFM3hXlAeW7/IAC/0LkBKmZVovdw2H/k71lx8ic9dUYikiT9Qfp3+4tp9dAbWdtsDU6CF7mzX9yUk/YS2/7WtvNF8+PJj+qlr9/4S0o9t95+x8hJ8MJ/d/fB0jmTYWGcOkqXn1xSnbsLcQle9BvV/86anYi0uEbvsUSVsz+/XZs7fRC82Dn4wJy+aeq8CN7FZcjn7OXZ8XJMtQleFInZnyq9o+PmSzxQfHhR1OiyhfH7VNvNHzsrvNf0cV7mZdBjyi540dCL7uhUqbR7DfOgneJ5tU3A9CMcpcsZM+L96EZFCQ/4k6udt/3PnF2e1Eql+gR/yTtfydj6JDoJXmRoWLG1dLEYCN76OiR9d893GxXr3teB9fqxlfYW3hHNmvzq2tLBQZf+stMskVlq69rMlzzBiK04SFgecQletAvjivK9yPJweQTFJUr1FcVRnlhVm4IX7ydkaviQmY/3cPOzF8FbKRegIHOu2gQv+mDnJzq4XncshjJQBG+5UpH5FbzVUGq4IoIXkeOo9NOZZgGKIC+h/nwOJmR9vSYfKMO2alQcf/x8Wj233rmc8DlzE/LFCBP2+237h2/rUHZBOE6CF1lVVu4o/axi27+lUZOL5teV3TfZ6v8PnkmrP7xl7yI1bJAmVywuHVH/of/qVLlc6a1r+GmeMKVyVnm38Y1T8OLeEPzIjvLDi+NxVXGzzLv1v5J/x7xHda/z5/Zd6HkRvKdMT8i/faC6g3AtvtUoeFGKW9f6agc3y+ZAEbzldjPp/SzaWXj9VMWL6/muiOBFacula7LS1kXBG9fA1up1E4YmJ0wxauaDAM4//Rv8XGtb8KJCWqlMGMiE8M6OvHSUWJzCxxIpmpA8/2PHVmYLzYvgveqYOrnw6L6OoOf/rFN1d5cWvPCDO3Zy9c5Dv4IXVskxQzRpbdLFMETW7My7FiQZDLeimNLNfeuxlFq6trYtvHBp6F2Iw4vgPW1mQr52LgVv0G8UBW+hqmdCL62fqlXwYucIVvhKBq5VRPBiol97T6dyS4gf9IHgebVJAB/lYVUcKGRHFVtsT6zOy84D9tkCqtqloVEz/RFLRY1/47GUWvFuTg4m+75cIXhNl4YFlasWBR/jv/zdXjgNb9bk1zYuDZfc0amQoaFUWjNkaJg/QZfvlDm3sNcn16vgxUcGwSJjWzQ5epwhqFiIcXvknaxsac9Lt4vmBAdkFPhqxAKtll0awGT2KD1w0BoFr9dZXvo4O8HrFhRVbRZepwAvN9FqxwDE3M4NR9/9bDsLb+FdpMfmJuXeMpGKCd4bHkiqtbtZgMLLIA2EY8yyu0N0OWmaUbZKZFFxhY+sKSAciiBUMmgNZWV/s9w+aA1VuS46uk6uObavFRSC8qWNOcfdmI8uqqtY2d1vPpYys0jY/UY2a3KfjeD92L1dak9HadEX95Z+2LnnRfCiD9h6Ry7ib37wcNeEO5ehCl9e1u/J2WYjQBvxXGLXJWrR67ZQsfiYH6iKfaX6jhIWC0NQtvnIQ2Wbi4+ihTfszHY/n4LX3o8Z9IY16SV3tNzJRnOEneCFDy9Sk5XabYvmzu5XqdirBMm9V2zLmxWA+CMBbI0fOzF6S1K5yFZ7WjKU9Laz5kHwXmmTexXuR8+tzcoem+IM4PuBIxPyhTMqs0X7+d8l1ZvbgqUlQ1nhd9uUpDKlrdfDBuvyqzKWS/YzV90EL3yQJyHf6zRDrj2utLvJL15Kq6fX52TH/rzknasrCyzl88YZkW3Fu7miWBlA/DCJ+9jBjSLjW3RZPEG3LbJCwRv3KIgEFbx2wW5ocSUCqu57PaNS3aUfPDcrLRasOZu8eS1NlcnBa428fZYGkauPqcx34rAFdPxTtO8dkKD42fU52bzX5U1bicbxnmUjgA8bXBkWTaxM8YKoOupWeAIBQGfPMSqSDBylgd/Zbl+RbGizJg/YWEFReOKRd3KO7hrHTymdhD8qtnbXQbDg8xuc24Yt/F9eXTpLw1f+DC6l/ZNxz8Z6kYuPrit7BTkv3NwEL/xvT5puuAZKYkFjFe+wq1hnGlnhr12vydlzEpHswGB7+bdvZKU7W9rgUXgvaDJvvC7jWzSp+FdCFfrvViyCgtfL7A13TFDBi3dZNi9SqnBFJUrx3vNqSiHvc6mfm+BFGd9UtnT1TDfXjnD0nc9GoaP9Zg7rvs/1gE1LZiGDlffFDXRriHMCVvu1a6mamhNLlBZ+fWvONpE+0mMdOd6Qr59T3hUuBM2Ta7KmD26Jd5DZpTGtutx9tX2+2U/8uks5LUwLVeQMuWpxeQPXwHz5u7BOlhZN2NKfPtKQH11SOtMArIzPb8jKPofSwmfMSsiXzyrvmHl5Zt0EL3KSXjg/IVcf4z4m330ypV7fkpO2pHK09GI7sLFBk/OOTIR2YUEBgT9jIbW/tJS1BO8jnyq9WPHCqBLHUPDGTz2o4EUNgK5u+OyX2tHRbHdC4ugRrLuZbGlhiPu5CV7kIz6YLn0+siHY7erE0Zfia2JRkcmVfh+7ZdGIu23mwr0cN7G7h9tLu5Jt473LQwD5LC9fmKioX08UPUUQznMbcralUiG+RjTrcvc15S1k8D//lFQvb7JfVCIAZ9YYTf73R+zb5Wa9RiWseeP0spcX/uSvu9RGhx0izK1FE3VHK+c193QpO9EFf80JQ3U5baYh19m4BUQxd4Jcw+3diXRsF/pIFwdf6NdtghOL22f62rfocuJkQ/75fe5i2qlvSHn3qsPcxL2uWFQnHz8x3H2C8A16DgVvUHLezwsqeHEHO0FW7nK8dtv+FgU3wYvjnNwaBtVXJjjMyW2k0vmBKy54sUp5+O2s7DqA5O/05fX+yNf+kVhpjWvV5LjJ8ZcxLQctyx9ym0PgWmOdyPnzyhfghTYtXZeTd9vtN4QhCo+frMvnTre3YiJTwyubc5LJKCn1lOJjMa7F3nUgDv4oiLF8S04OpuzfGyjhinRrl5RISWa1ySl41soJvXCCLt/qFfQVR5/8XDNqwYt73/zXlHp2XdbMWmG3G4DjkId2QiuqsRmeLMh2/cLuw+9WOJeZP2pc6RK+fliV81gK3vhphxG8Tn6z5dxydxKGIOhF8Dq5RFTCRePBNzPqQLL0t8ZL6ef4Z06FLbzWS/bFjTlJlggcKQcA3qP8BCCQsOV68rSEfPb02rHeuJFCztpXHCxWsBhOGqHLzy4rj5UXpXP3HlS2+VYxDrNG22/5W/29/eW0em5dTra2522FEIpXHAkr74fiKVRQzP6hN7rV7S9nJNNt76aB470k+IeVEZXkSlVbs+4Jl4+PHJVwrOLkNjei/nscghdt/JeHkgrZRrrSpRc3Vj+wYwFL7y+vDD6X4e/3f5/LmJe0E9gQ16fPrFyVQr/jRsHrl5j/48MIXpSB70jbGwC8CE3/Le57RhSCF25BaRsfeLg1DKrTyvrOumtZyvSRtvuVi63T+FTUpcFq2BV34cNc8bCEKOYxr+FCACKrsV6TM2cajlbFWgT5kxfS6sHlzhYr+CwfPzn+Skuw1qH6G3ZO7MQERMuJqCbmoerTv/0lpV7YkLUXJggyMjSz3GrYrW63sXcLwsMcw+8j8+tcA6wg5hH4tnVf3jY9F4pQjGzR5I4rgos7tz75/Xtcghft+PzvUQkzJ6mCFi35A+KGOpGJw3VZMjMhly7om9LOS5/gUtLe6bwoGzVYl8WTdfmCwy6El3uV4xgK3vgphxG8aJ2T2CxHwJeTK4JFz6s4dLpWOX15EUSX7LYPQK10/l2La1UI3q8+klRvbWOp4fhfFZW/A1JgLZpQu+nH3AheeVeX2p90TugP/8r54+NjcOvStHppo3MqMfRj0rBCsJmXAAe8WH+zImum8HLa7p48QjfTy91wSjyWe1jR/25T6tgaG2T9mDvOkO9/xJu1GVW/nltf2Mov9YOAhnX+6AmG3PJhb9d0myd2f0dO50sXuovHOAWvJXrf3OocUIyPRyIhAreDoFxQpfDZdc6ZNjCecL05aWq8ObphcQ6bI5SCN+jM935eWMHrFFhl7j42xpcrFoFzBx0szH4Fr5PQxLWwWI87mBgFNFJmxcrSgrecwtttFlWF4IUv76Mrs7Jhr/2WqVtH+PfqJwCxi2pPtVJHPghRCJFn19tH/lvXhOg9YaoRef7a7y9FZbS8bNtv/yzhpY5301lH+MtAcNMfk+qtd523/yFOxrbocvoMI/J0XlgYr9qZl3aHkuTYAkdKrksW1MlVi92FI8YDIvOPb3fLjgOlywxbY4bgvLljdPluxKIXQuvvO/Oy/YASRJG3NGoybZguN55mv2iIW/DCH+/J1TnznWyXOszigud6yghd/vOCYIuBQraNnGOGCCvo89TphmtqML/PLQTUuj15aesSaWoQmdCiBX4ukW7z6TXOfvOstOZ3hA4/PqzgdbPy1v//0ttx5IvFM9Vhk7KrNxGvFl6c5xYAB+vqFYu8vQuDjIybe0alAuhKGi+CdDCOc2BleWlTVlLOO8Jx3JrXjJkArGMNdZosnti/xa6F8TMPFqoIOiXzh+hEkMTccXpg61jvYYM/6sqdPf6XDjGgEKWJhCZ//Ef/KZ8uu6NT7Uf6KpcYUxQSOWWqLjctCSaCivuGQJO/rkZwa17S3VIycM46HoGBk4e7+yX3ZofKX0+vcX//QHi1DtLlgqMSngW10+OFlGDIR541UxQVjrQWJPBxt1scxi14rTbDD3zHfqQrsx/wQjU2kWMmGX0qunl5tcDK+/TanOztcDZ44D3SMkiToyNK7wdr2+OrsrK5De4smiilRNNQelnJiMHOqfrs+kULr5cRD3dMFILXza0g6kIUmGvJ7rw4+bgWU/EjeJ1KFFvXjMPKCutyOls6r7F130oEzznNrqqw8KKBsPI+sSYnq3cyL2+410H1nQ3xg4pPXzyz+vKZxkEL2REgYpxKDVv3HVSvyeghmkxs1T350pZq7y1PJtXaPUp2H1TSmXEXo7AunzYjmK8trKzv7MjLgaSz4oUIam3UZFyrLtNH6IGCE/GReHt7XtbvzcmuDiW5nLPYBRu4aZx/VEIunu/fogF/UohqJ5cN3ANW5LEYs6G6HDFGl48d6999AyIP1mrMESRqL3VPFAQ5cUrpXYByCV58TB91KZttzckhjZqgCEmQvMVYcDy2EotE53llWfCxizB1mARaUOFbA7eY9XvzsssmqLOpQTN9k/0G1VLwxvFGPfyaUQheXNHNMhpVKVyn/L92tPwIXlwDsQiaoykA7g0iVy2O5hvsVPiiuE/VZN01jQnxT0/vd0CamoffKJh43T463q/KIytFAKIHAScLJ+py0wARuxZrFDVAkFd7EonOnUfAspAhjdb0YbqMGeIeXYuP9s6DSja152XNLncB+p4oadJkwXhD/vX9wV98EL2vbi5UbnN7TmFNHtKkyVFjDJkwVJNPesipipcptvfX71WycW/O064PrH9jhyLFWnA/T3wAn8FCZZ+76AXPhnrNrAI2a6Qm41t1Tym67ng5rba0K8EOwI6D4mo5RQXCUi4U5RK86CfE+cubvVXFHNOiy4IJwZ537FCg8l2Xx4w9WBBMHa7L7FG6p3kF1xU8M6t352Vzu/NOCIJLg/gmU/DG/7WJSvDevzytYCBw+sFCmdBVYKHolEnB6b5+Ba8XAW8KPk1kcL0uHw0YZIprOKVDK+7TkIZw94ljJlWV4EUHsYW2ryPv6SMXBxBeMxoCECBDB2ly4tT+l43BKyEk839tS0460v5yTCcMTUYN0QTV2ZC+bXB94Y7JrJjWwN0dytze7856bUnhRYdt5/kTDPnOeeHcDOBz+siqrCkM/bQBrUWhi/FDNRnRpElrk2ZaHWDUO5gRM6cuhG5bJ6qn+evb4EZN3jc9/FyDkHxqXVYOOPgJ27UMwn7ScE2G1GumH26dLoItv46Mkr1dSrbvV4V0Xx6nA8ZsAQLlSvjGllPwor8wRvzpbQT2OVdjw7HYQThnTsKTCO3N8p/u71Jb2vznZccu0sjBmml5H1x/aF51ZArPDCy5uw96n1cQvDNGGfLDi/w9KxS83p/boEdGJXhxfz+CFOIX6Red8nrjmhDS8MX3+pyX4hBE8Hq1ulr3Q3+QusyL+HUK9CvV/jhcKILOl+Lzqk7wonGooLTJo5UlCgi8RnQErIh2iJmzjwj20YuuNZW/0k1I8bQ7b+aZdvN7tVqLxQJSfGFLrc4oZAjAuXiB4p+ov57Leb8erouAKwQW+f2AOxFEyeHt+/2JXmxJIygEL1tYf60f+gaLMcpSQuz6YQWxszjCzB8/fj6tHlmZNfP8ulnnrfZb8x6Cvk4T0fRD44aaOhivboybDyGPYDD4xX7l7L7W+HILXvTTyv4B8e70MbcCzD44139hCrhQPLMuJ+t2F3YQvP4wrzCnGvC8FLG35lV3HiLafUfCuh98wY+bmvBdCpyC1+uIBT8uSsGLVvgRcwWLr5j/ww/CDutX+H/jnYU5Cz9du4wFXnsdRPDi2jBGtNkUf+h9b7yzNCn0B+9ifGfgww5RiPajP/gf+lP49nhbqZezgIdXnu+9p/2eUI7jYU14eWNWtu33BrgcbeI9vBHAx2bmKENOm2HI5R7SK3m7am0fhRy2b+/IOWYXiLOH8EeEr+kt5/uzVrm1CW4VT63NmdvzToUb3K4T5u9IV7VgvB7Ib9TpvhC9cG/YU8H84Asn2af7qoTgBS/kd0YJYuTOdfrpuiYzR+lyzmzDd9lwuB68sCknyAhSqR/cJS5fWOfJ+lXcRgre+EcsasGLFrtlGoi/V4ffIajgxVWcKp7F2Q8EfjbVwU/Yf0xDnO0qvnZVWnjRwO88kVKowAZ/Lo8Li3Ix431KEDB9NRs1mTqi4EcZNBF9f4X7v55IqTe25cUtR2+U/ccKfmSzJjNG6YGi5720BRa5ZVtzsmkP+ubP6uzl+qWOQb8w30YN0WXRBOeyyEHvgfMgKl/fljODAZFnshzvIVhZsEAZ26rJ2TMTtoLLrSwv3AounO89NZsfTig1vWJLTjqRe9MudzEuqIksme0v9Z3VDiymYOnd0p43XV3KwR73xk7IsGZN5o4Otoii4PUzk4IdG4fgRUv8ugQEa723s8IIXusOfizX3lplfxQs3Y11WCT6DxYOe28/51et4EUnbnwoqdbvyduWRvXTUR4bHwF8pPGBnTs2XDBUfC2sjivDavjSppzsOFCo6hXXR9wShHWGJktmG/LZ04IHqHkl941HIehz0pkuiKC49mYw1+oTIsOadTnvyETsL1iUIkU+2q3tOcmYKXi8EvF/HEQ8snZggeJWyAFz6aEV9jkc4xS86BlyMq/aUXDVcfoha8O3Q/iMf+2RpFqxLW+6l8T5zBS2c0WmjTDkuCm6fPz4YFaqu1/FfMk6ZmhhHl7/z0bxGXaCt7lek8sWBhs36/peUm2FaT2EofVzchGIQvDiPki/hvvE9a3BPdAnWHbDsg/D1eu5VS140QmvqYK8dpjHRU9g+khdTpyakOuPr+7VXfQ9D3ZFiMPl23PSESAwyssd4dN65Bhdbg4hNLzcp/cx+Fi8tDkvb2/LxfaChQvDwgm6fGlJ/CK+uH8/eLaQqWDnfh+OpT4hTsNzNNmQj3vIZHH7i2l132v2gheW/fuu9Z9n2U+TkW96w96cY+DiidOC5eYtbgcsVa9szsuqXXmzVHYcP+T3PW5SsJRqxe0xAzrfyQoMNb1/Vn7ls+ckyj5/wzBzylkblTDz0z47wRtlVgBY6uG7ipzMUfyw3Y9rFfNyyp8bJVev1d389jOb16S5vrpdGPo8g347We7jb3sxrV7clJN32/K+ghjK3c6Bdj9Yo5BBYNZo+FAavn3dBhqv3v2FYFm3Ny9b2/OyLylmyd4wPwRLIVBw8lBNpo3QI69G5adttz6TUpvblWwzc8xKaJECqycyVkwZrsu0EVqgvLd+2m937K9ez5gBiNhm39PRk/M4pP4d3lxIQzdpqMisUf78Xa+4q0u1d/Z9LyJobOpwQ358abQ+27254EMKt4NSu3CwpAxq1OTsWcHyPZcaAwTNIQ3f9va8tCWdU7q5jTfEJzKEIE/0BOT0HaF5KrHtdl38HZXjVrzbN+gO8Q0Th+myZKb/YD4v943rmFLla8GvTtc8peKLul2lBC8E5SdOCGfdLdXOgptDISgt6A9BXLA+l1vULIUAAAjlSURBVCpbXaovSrTAOwxObfztm2kFF1EEPYf5IXCvKeGeOjPMPeI6t+otvOg4tu+e35iTXbCu9JRFjQsIr+tOACl7RrfoMmdUMD839zsMnCN+8kLarI62o0OZJVwR/IVI31zPC7Z4G7cQVVvYejXTjPVEDCPrwbDBmsweGZ8/a5ARgd8yStOiFDCsJd05JbmeilboXiG6+VCfcI9CvwrbZBBuEPKThsJirR1mHQnSnqjOufe1lHpjuzKDarGlX8i+UOgjfmbfevpnjRf+u5lJwPQ/1gqZKgzkJ9blq+cGs1bDxxi5ntuKfKdx7dGDUY1MD1we1w8nWF8tX1vLlQXuAY0JTY4ar8u3Phi96Ma8WrkrL5mMMlP1gT0Mv+9x72FvMu/5wlnPDMQHFuto3+gWzfQBD1I4xIkRnunnNuRkHxYjEBdaoR0oeX16wIIvfsYkjmOLt8bxbCJ7TKWCk2AZTZuVCQtb9ea7Qkc54OgFL1giCAzvZjMlnzm3tPcyFhTrYMtbAc+45SJTZ+iO8Sx4fqysDoVML4W+xMkWadMKmResTAzINFEQ9Hb9sZ4lvF+uWBQP5zjmbe9r1oTgRaOxxfC7t7OSxgfGR/7RckAcCPd4zy80ockxE+mrG8eYI1Bn634lOw4iKb5IR7eSVEYEOR2tUsTNDWKuroc0ioxqLhQ8qPZAAbDCi33bASW7OpGLViSVhYVUJJNVpgBpqtOkMSFmXkj0DZW0PnNKbbxYUZhhxwEl7SkIsEL/kj0pzeoThZywSHMFKw/GbNwQTa4L6CPae96hqt+bOwsVw/CRHdOiyTETDLliUXndi+Bru2U/gvuQf1tk1khdvnB6MCHv59m6exmembyZ5xj5jpPdYrYBiyv8MK8G1RUEbmuTyPgWXW4ow7yC9fulLTkz9zIWsHAxmT/eW4EMP/0v57HoE7Ai9Vspa2U524J7wb8eIrQSAgyuK0ihiMUufma5dt1bTttSnGBJhpisVLA3rL/mwr3HIIF3SZj+lHsueL1fzQheS/QuXYsAEm+VkLxC4HHuBJATFCVijxqrR/axdr8rjyABEiABEiABEiCB8ARqSvCiu/B5QRqk7e1YzbtX/QmPaOBeAVvK8J+EdQKBaeUOFBq45NlzEiABEiABEiCBKAnUnOC1Ov/53yfVul3e665HCa2/X8vyFR0+SJMZo+Pxw+vvDNk/EiABEiABEiCB6iFQs4IXCL/3dEq9siUveytYDal6hjKaliCwBgn9Ub3qpjPj98GLptW8CgmQAAmQAAmQAAnYE6hpwYtuIYPD33fmZdO+vKR7kpNzwP0RQBnQloZC5gUE1KBa2jXHlDfoxV+LeTQJkAAJkAAJkAAJeCdQ84LX6uq//DapUMGqI6XMVDDBs+Z5h1fLR1pZFxKGZqbLmTtWl6+fQ4tuLY8p204CJEACJEACJFCaQL8RvOgeUnu8+m5eVu2MvxRlLU4oyzfXMERQlWbaSE3mjNbluuNqI/1TLTJnm0mABEiABEiABCpPoF8JXgsn8mKi+s/6fXlp76StF1wgduGyMKFFkwmtuoxrqc1KKZV/ZNgCEiABEiABEiCBWiPQLwWvNQjfX5pSm/Yp2dOppDNdSGOGJOD9/WdWdNILda4behKvo+zs9OHlSbre3/myfyRAAiRAAiRAArVFoF8LXmso4Orw8pa8bNyTN4WvVfaztobKubXmQPaUnq2v02T0EE1mjNBlxsjaqMTVn8aCfSEBEiABEiABEqguAgNC8BYjRynOzW1K1rflZffBfM2XKbbSiI0YLDJusC7jW7XIa8NX15Rla0iABEiABEiABEjAH4EBJ3gtPPe8mlbb9udlT6dIV7eYlt+DGSWpjJJ0VhMFM3AV/DRNE0NX0pDQpL6n8llzQ6E+/OB6TQY3igxv0uT6Exh4VgXDxSaQAAmQAAmQAAlUIYEBK3h7j8Wdy9Lq3f1KNrfnpa2rIICL/X0tAZy3dLDqSX2Gf7coWv+t6OIIFuv9s9wP8N9184DCRSFudRGBmzEst/j/G+pEWho1Gd6sychBmoweLHL98UwfVoXPEptEAiRAAiRAAiRQpQQoeB0G5oEVGdWZUdKREunIKDmYUtKZEdMS3JURyeeVKU4hjLtzhX8WG4atXLcGxKuGQLJCMBkstXWw1tZp0lgv0oR/9vx7Uz1SholctZgW2yp9ZtgsEiABEiABEiCBGiNAwRtwwB5YnjHNsjlVsAQrpUk2XwiIs35m3lsIXU0TTVOm2C38u8hHF7CSWUD0PI0ESIAESIAESIAEfBGg4PWFiweTAAmQAAmQAAmQAAnUGgEK3lobMbaXBEiABEiABEiABEjAFwEKXl+4eDAJkAAJkAAJkAAJkECtEaDgrbURY3tJgARIgARIgARIgAR8EaDg9YWLB5MACZAACZAACZAACdQaAQreWhsxtpcESIAESIAESIAESMAXAQpeX7h4MAmQAAmQAAmQAAmQQK0RoOCttRFje0mABEiABEiABEiABHwRoOD1hYsHkwAJkAAJkAAJkAAJ1BoBCt5aGzG2lwRIgARIgARIgARIwBcBCl5fuHgwCZAACZAACZAACZBArRGg4K21EWN7SYAESIAESIAESIAEfBGg4PWFiweTAAmQAAmQAAmQAAnUGgEK3lobMbaXBEiABEiABEiABEjAFwEKXl+4eDAJkAAJkAAJkAAJkECtEaDgrbURY3tJgARIgARIgARIgAR8EaDg9YWLB5MACZAACZAACZAACdQaAQreWhsxtpcESIAESIAESIAESMAXAQpeX7h4MAmQAAmQAAmQAAmQQK0RoOCttRFje0mABEiABEiABEiABHwRoOD1hYsHkwAJkAAJkAAJkAAJ1BoBCt5aGzG2lwRIgARIgARIgARIwBcBCl5fuHgwCZAACZAACZAACZBArRGg4K21EWN7SYAESIAESIAESIAEfBGg4PWFiweTAAmQAAmQAAmQAAnUGgEK3lobMbaXBEiABEiABEiABEjAFwEKXl+4eDAJkAAJkAAJkAAJkECtEfh/ecYA2lZvI+QAAAAASUVORK5CYII=;" vertex="1" parent="1">
          <mxGeometry x="130.99" y="297" width="120.69" height="30" as="geometry" />
        </mxCell>
        <mxCell id="pUkawa8a8KenMPf091Pf-20" value="" style="shape=image;verticalLabelPosition=bottom;labelBackgroundColor=default;verticalAlign=top;aspect=fixed;imageAspect=0;image=https://upload.wikimedia.org/wikipedia/commons/6/67/Kubernetes_logo.svg;" vertex="1" parent="1">
          <mxGeometry x="492.5" y="304.14" width="135" height="23.86" as="geometry" />
        </mxCell>
      </root>
    </mxGraphModel>
  </diagram>
</mxfile>
